<svg width="1140" height="342" viewBox="0 0 1140 342" fill="none" xmlns="http://www.w3.org/2000/svg">
<g clip-path="url(#clip0)">
<path d="M344 273C196.8 223 48.5 298 2.5 360.5L-56 433V-86H1163.5L1180.5 308.5C1128.9 237.7 929.5 231.207 821 273C712.5 314.793 491.2 323 344 273Z" fill="url(#paint0_linear)"/>
<path d="M290.52 163.072C290.472 163.408 290.304 163.672 290.016 163.864C289.776 164.056 289.488 164.152 289.152 164.152C288.672 164.152 288.288 163.96 288 163.576C287.712 163.192 287.616 162.784 287.712 162.352C288.432 159.712 289.92 153.712 292.176 144.352C292.176 144.208 292.224 144.04 292.32 143.848C295.824 129.016 297.84 120.328 298.368 117.784C298.464 117.448 298.632 117.184 298.872 116.992C299.16 116.752 299.472 116.632 299.808 116.632C300.24 116.632 300.6 116.824 300.888 117.208C301.176 117.544 301.272 117.928 301.176 118.36C300.264 122.632 298.344 130.84 295.416 142.984C298.152 143.032 302.232 143.056 307.656 143.056C312.216 143.056 315.648 143.032 317.952 142.984H318.024L328.032 142.768C328.464 142.768 328.824 142.912 329.112 143.2C329.4 143.488 329.544 143.824 329.544 144.208C329.544 144.592 329.4 144.928 329.112 145.216C328.824 145.504 328.488 145.648 328.104 145.648L319.032 145.864C318.6 147.976 318.216 149.632 317.88 150.832C316.824 155.392 315.816 159.472 314.856 163.072C314.808 163.408 314.64 163.672 314.352 163.864C314.112 164.056 313.824 164.152 313.488 164.152C313.008 164.152 312.624 163.96 312.336 163.576C312.096 163.192 312.024 162.784 312.12 162.352L313.056 158.608L315.072 150.112L316.152 145.864C314.28 145.912 311.472 145.936 307.728 145.936L294.768 145.864C292.752 154.168 291.336 159.904 290.52 163.072ZM318.384 136.648C320.448 127.96 321.888 121.672 322.704 117.784C322.8 117.448 322.968 117.184 323.208 116.992C323.496 116.752 323.808 116.632 324.144 116.632C324.576 116.632 324.936 116.824 325.224 117.208C325.512 117.544 325.608 117.928 325.512 118.36C324.6 122.68 323.16 128.992 321.192 137.296C321.096 137.632 320.904 137.92 320.616 138.16C320.376 138.352 320.088 138.448 319.752 138.448C319.272 138.448 318.888 138.256 318.6 137.872C318.36 137.488 318.288 137.08 318.384 136.648ZM337.401 131.104C337.401 131.632 337.185 132.088 336.753 132.472C336.369 132.856 335.913 133.048 335.385 133.048C334.857 133.048 334.401 132.856 334.017 132.472C333.633 132.088 333.441 131.632 333.441 131.104C333.441 130.576 333.633 130.12 334.017 129.736C334.401 129.304 334.857 129.088 335.385 129.088C335.913 129.088 336.369 129.304 336.753 129.736C337.185 130.12 337.401 130.576 337.401 131.104ZM332.649 137.512C332.745 137.224 332.913 136.984 333.153 136.792C333.393 136.552 333.681 136.432 334.017 136.432C334.497 136.432 334.857 136.624 335.097 137.008C335.385 137.392 335.481 137.8 335.385 138.232L334.881 140.248C334.113 143.272 333.513 145.864 333.081 148.024C332.649 150.184 332.433 152.176 332.433 154C332.433 158.272 333.873 160.408 336.753 160.408C338.289 160.408 339.729 159.568 341.073 157.888C342.417 156.208 343.401 154.168 344.025 151.768C344.073 151.432 344.217 151.168 344.457 150.976C344.745 150.784 345.057 150.688 345.393 150.688C345.873 150.688 346.233 150.88 346.473 151.264C346.761 151.648 346.857 152.056 346.761 152.488C345.993 155.368 344.673 157.912 342.801 160.12C340.977 162.28 338.937 163.36 336.681 163.36C336.345 163.36 335.889 163.312 335.313 163.216C331.521 162.448 329.625 159.376 329.625 154C329.625 151.888 329.841 149.704 330.273 147.448C330.753 145.144 331.377 142.528 332.145 139.6L332.649 137.512ZM352.026 131.104C352.026 131.632 351.81 132.088 351.378 132.472C350.994 132.856 350.538 133.048 350.01 133.048C349.482 133.048 349.026 132.856 348.642 132.472C348.258 132.088 348.066 131.632 348.066 131.104C348.066 130.576 348.258 130.12 348.642 129.736C349.026 129.304 349.482 129.088 350.01 129.088C350.538 129.088 350.994 129.304 351.378 129.736C351.81 130.12 352.026 130.576 352.026 131.104ZM347.274 137.512C347.37 137.224 347.538 136.984 347.778 136.792C348.018 136.552 348.306 136.432 348.642 136.432C349.122 136.432 349.482 136.624 349.722 137.008C350.01 137.392 350.106 137.8 350.01 138.232L349.506 140.248C348.738 143.272 348.138 145.864 347.706 148.024C347.274 150.184 347.058 152.176 347.058 154C347.058 158.272 348.498 160.408 351.378 160.408C352.914 160.408 354.354 159.568 355.698 157.888C357.042 156.208 358.026 154.168 358.65 151.768C358.698 151.432 358.842 151.168 359.082 150.976C359.37 150.784 359.682 150.688 360.018 150.688C360.498 150.688 360.858 150.88 361.098 151.264C361.386 151.648 361.482 152.056 361.386 152.488C360.618 155.368 359.298 157.912 357.426 160.12C355.602 162.28 353.562 163.36 351.306 163.36C350.97 163.36 350.514 163.312 349.938 163.216C346.146 162.448 344.25 159.376 344.25 154C344.25 151.888 344.466 149.704 344.898 147.448C345.378 145.144 346.002 142.528 346.77 139.6L347.274 137.512ZM362.835 165.736C363.411 164.68 363.747 163.888 363.843 163.36C363.939 162.832 363.963 162.304 363.915 161.776L363.843 161.272C363.843 160.744 364.035 160.288 364.419 159.904C364.803 159.472 365.259 159.256 365.787 159.256C366.411 159.256 366.915 159.496 367.299 159.976C367.731 160.456 367.899 160.96 367.803 161.488V161.704C367.563 163.336 367.131 164.752 366.507 165.952C365.883 167.2 365.211 168.136 364.491 168.76C363.771 169.432 363.147 169.768 362.619 169.768C362.043 169.768 361.755 169.432 361.755 168.76C361.755 168.136 362.115 167.128 362.835 165.736ZM394.495 131.104C394.495 131.632 394.279 132.088 393.847 132.472C393.463 132.856 393.007 133.048 392.479 133.048C391.951 133.048 391.495 132.856 391.111 132.472C390.727 132.088 390.535 131.632 390.535 131.104C390.535 130.576 390.727 130.12 391.111 129.736C391.495 129.304 391.951 129.088 392.479 129.088C393.007 129.088 393.463 129.304 393.847 129.736C394.279 130.12 394.495 130.576 394.495 131.104ZM389.743 137.512C389.839 137.224 390.007 136.984 390.247 136.792C390.487 136.552 390.775 136.432 391.111 136.432C391.591 136.432 391.951 136.624 392.191 137.008C392.479 137.392 392.575 137.8 392.479 138.232L391.975 140.248C391.207 143.272 390.607 145.864 390.175 148.024C389.743 150.184 389.527 152.176 389.527 154C389.527 158.272 390.967 160.408 393.847 160.408C395.383 160.408 396.823 159.568 398.167 157.888C399.511 156.208 400.495 154.168 401.119 151.768C401.167 151.432 401.311 151.168 401.551 150.976C401.839 150.784 402.151 150.688 402.487 150.688C402.967 150.688 403.327 150.88 403.567 151.264C403.855 151.648 403.951 152.056 403.855 152.488C403.087 155.368 401.767 157.912 399.895 160.12C398.071 162.28 396.031 163.36 393.775 163.36C393.439 163.36 392.983 163.312 392.407 163.216C388.615 162.448 386.719 159.376 386.719 154C386.719 151.888 386.935 149.704 387.367 147.448C387.847 145.144 388.471 142.528 389.239 139.6L389.743 137.512ZM407.464 121.24C407.368 121.528 407.2 121.768 406.96 121.96C406.72 122.152 406.432 122.248 406.096 122.248C405.616 122.248 405.232 122.056 404.944 121.672C404.656 121.24 404.584 120.808 404.728 120.376L408.256 108.496C408.352 108.208 408.52 107.968 408.76 107.776C409 107.584 409.288 107.488 409.624 107.488C410.104 107.488 410.488 107.704 410.776 108.136C411.064 108.52 411.136 108.928 410.992 109.36L407.464 121.24ZM416.107 138.088C416.155 137.752 416.299 137.488 416.539 137.296C416.827 137.104 417.139 137.008 417.475 137.008C417.955 137.008 418.315 137.2 418.555 137.584C418.843 137.968 418.939 138.376 418.843 138.808L417.331 145C420.499 139.384 423.667 136.72 426.835 137.008C428.851 137.2 430.363 137.992 431.371 139.384C432.379 140.776 432.931 142.816 433.027 145.504C435.715 139.84 438.859 137.008 442.459 137.008C444.427 137.008 446.011 137.824 447.211 139.456C448.459 141.04 449.083 143.368 449.083 146.44C449.083 148.744 448.699 151.408 447.931 154.432C447.595 155.776 447.427 156.928 447.427 157.888C447.427 159.04 447.667 159.88 448.147 160.408C448.627 160.888 449.251 161.128 450.019 161.128C451.507 161.128 452.947 160.24 454.339 158.464C455.779 156.688 456.859 154.456 457.579 151.768C457.627 151.432 457.771 151.168 458.011 150.976C458.299 150.784 458.611 150.688 458.947 150.688C459.427 150.688 459.787 150.88 460.027 151.264C460.315 151.648 460.411 152.056 460.315 152.488C459.451 155.656 458.107 158.368 456.283 160.624C454.459 162.88 452.467 164.008 450.307 164.008C448.819 164.008 447.499 163.504 446.347 162.496C445.195 161.44 444.619 159.808 444.619 157.6C444.619 156.64 444.811 155.344 445.195 153.712C445.963 150.592 446.347 148 446.347 145.936C446.347 143.872 445.987 142.36 445.267 141.4C444.547 140.392 443.611 139.888 442.459 139.888C440.683 139.888 439.075 140.944 437.635 143.056C436.195 145.12 434.971 147.64 433.963 150.616C432.955 153.592 431.851 157.264 430.651 161.632C430.459 162.4 430.003 162.784 429.283 162.784C428.899 162.784 428.563 162.664 428.275 162.424C427.987 162.136 427.843 161.776 427.843 161.344C427.843 161.104 427.867 160.936 427.915 160.84C429.595 154.024 430.435 149.128 430.435 146.152C430.435 144.136 430.099 142.624 429.427 141.616C428.803 140.608 427.843 140.032 426.547 139.888C424.339 139.648 422.179 141.616 420.067 145.792C418.003 149.968 415.843 155.32 413.587 161.848C413.395 162.52 412.939 162.856 412.219 162.856C411.739 162.856 411.331 162.712 410.995 162.424C410.611 162.136 410.443 161.824 410.491 161.488C411.499 156.784 413.371 148.984 416.107 138.088ZM488.707 163C488.707 163.384 488.563 163.72 488.275 164.008C487.987 164.296 487.651 164.44 487.267 164.44C486.883 164.44 486.547 164.296 486.259 164.008C485.971 163.72 485.827 163.384 485.827 163C486.067 162.232 486.619 160.528 487.483 157.888C488.395 155.2 489.523 152.104 490.867 148.6C478.243 147.496 471.931 143.392 471.931 136.288C471.931 133.408 472.603 130.96 473.947 128.944C474.283 128.512 474.691 128.296 475.171 128.296C475.555 128.296 475.891 128.44 476.179 128.728C476.467 129.016 476.611 129.352 476.611 129.736C476.611 130.024 476.539 130.288 476.395 130.528C475.195 132.256 474.667 134.368 474.811 136.864C475.147 142.192 480.835 145.192 491.875 145.864C496.003 135.4 500.371 126.376 504.979 118.792C509.635 111.16 514.099 107.344 518.371 107.344C523.795 107.344 526.507 114.28 526.507 128.152C526.507 131.128 526.387 134.416 526.147 138.016C526.099 138.4 525.931 138.736 525.643 139.024C525.403 139.264 525.091 139.384 524.707 139.384C524.323 139.384 523.963 139.24 523.627 138.952C523.339 138.616 523.219 138.256 523.267 137.872C523.507 133.936 523.627 130.504 523.627 127.576C523.627 116.008 521.875 110.224 518.371 110.224C514.867 110.224 511.051 113.752 506.923 120.808C502.795 127.816 498.787 136.216 494.899 146.008C503.011 146.2 512.587 145.36 523.627 143.488C523.915 143.392 524.107 143.344 524.203 143.344H524.347C527.467 142.816 529.987 142.312 531.907 141.832L532.267 141.76C532.651 141.76 532.987 141.904 533.275 142.192C533.563 142.48 533.707 142.816 533.707 143.2C533.707 143.536 533.587 143.824 533.347 144.064C533.155 144.304 532.915 144.472 532.627 144.568C530.419 145.048 528.043 145.528 525.499 146.008C524.971 151.576 524.227 157.312 523.267 163.216C523.171 163.6 522.979 163.888 522.691 164.08C522.451 164.32 522.163 164.44 521.827 164.44C521.395 164.44 521.035 164.272 520.747 163.936C520.459 163.6 520.339 163.216 520.387 162.784C521.251 157.696 521.971 152.272 522.547 146.512C513.763 148.048 505.459 148.816 497.635 148.816C495.907 148.816 494.635 148.792 493.819 148.744C491.851 153.832 490.147 158.584 488.707 163ZM562.27 151.696C562.318 151.36 562.462 151.096 562.702 150.904C562.99 150.712 563.302 150.616 563.638 150.616C564.118 150.616 564.478 150.808 564.718 151.192C565.006 151.576 565.102 151.984 565.006 152.416C564.19 155.44 562.966 157.984 561.334 160.048C559.75 162.112 557.854 163.144 555.646 163.144C552.478 163.144 550.462 161.32 549.598 157.672C548.254 159.736 546.67 161.32 544.846 162.424C543.022 163.48 541.126 164.008 539.158 164.008C538.39 164.008 537.526 163.888 536.566 163.648C534.502 163.168 532.87 162.016 531.67 160.192C530.47 158.32 529.87 156.064 529.87 153.424C529.87 152.176 529.966 151.048 530.158 150.04V149.536C531.79 141.808 534.094 132.136 537.07 120.52L538.438 115.048C538.486 114.712 538.63 114.448 538.87 114.256C539.158 114.064 539.47 113.968 539.806 113.968C540.286 113.968 540.646 114.16 540.886 114.544C541.174 114.928 541.27 115.336 541.174 115.768L540.022 120.448C538.054 128.32 536.518 134.608 535.414 139.312C537.766 136.96 540.454 135.784 543.478 135.784C544.63 135.784 545.782 135.976 546.934 136.36C548.806 137.032 550.246 138.376 551.254 140.392C552.31 142.408 552.838 144.688 552.838 147.232C552.838 148.912 552.646 150.424 552.262 151.768C552.166 153.016 552.118 153.928 552.118 154.504C552.118 158.344 553.27 160.264 555.574 160.264C557.062 160.264 558.358 159.496 559.462 157.96C560.614 156.424 561.55 154.336 562.27 151.696ZM533.182 149.536C532.798 151.168 532.606 152.536 532.606 153.64C532.606 156.04 533.206 157.912 534.406 159.256C535.654 160.552 537.286 161.2 539.302 161.2C541.462 161.2 543.454 160.36 545.278 158.68C547.15 156.952 548.542 154.432 549.454 151.12C549.838 149.824 550.03 148.432 550.03 146.944C550.03 145.024 549.67 143.368 548.95 141.976C548.23 140.536 547.222 139.576 545.926 139.096C544.918 138.76 544.006 138.592 543.19 138.592C541.078 138.592 539.11 139.48 537.286 141.256C535.462 143.032 534.094 145.792 533.182 149.536ZM560.34 161.632C561.924 153.376 564.204 143.128 567.18 130.888C568.524 125.272 570.228 120.928 572.292 117.856C574.356 114.784 576.516 113.248 578.772 113.248C579.54 113.248 580.356 113.488 581.22 113.968C582.852 114.832 583.668 116.416 583.668 118.72C583.668 120.736 582.996 122.992 581.652 125.488C580.308 127.984 578.46 130.36 576.108 132.616C573.804 134.872 571.26 136.624 568.476 137.872L566.748 145.36C568.236 142.528 569.82 140.344 571.5 138.808C573.228 137.224 575.148 136.432 577.26 136.432C579.804 136.432 581.748 137.176 583.092 138.664C584.484 140.104 585.18 142.312 585.18 145.288C585.18 147.688 584.724 150.544 583.812 153.856C583.476 155.2 583.308 156.352 583.308 157.312C583.308 158.464 583.548 159.304 584.028 159.832C584.508 160.312 585.132 160.552 585.9 160.552C587.436 160.552 588.9 159.76 590.292 158.176C591.732 156.544 592.812 154.408 593.532 151.768C593.58 151.432 593.724 151.168 593.964 150.976C594.252 150.784 594.564 150.688 594.9 150.688C595.38 150.688 595.74 150.88 595.98 151.264C596.268 151.648 596.364 152.056 596.268 152.488C595.5 155.368 594.276 157.816 592.596 159.832C590.916 161.848 589.044 163.024 586.98 163.36L586.188 163.432C584.7 163.432 583.38 162.928 582.228 161.92C581.076 160.864 580.5 159.232 580.5 157.024C580.5 156.064 580.692 154.768 581.076 153.136C581.988 149.68 582.444 146.944 582.444 144.928C582.444 142.912 582.012 141.472 581.148 140.608C580.284 139.744 579.012 139.312 577.332 139.312C575.364 139.312 573.564 140.344 571.932 142.408C570.348 144.472 568.932 146.992 567.684 149.968C566.484 152.896 564.996 156.976 563.22 162.208C563.124 162.544 562.932 162.808 562.644 163C562.404 163.24 562.116 163.36 561.78 163.36C561.156 163.36 560.7 163.048 560.412 162.424C560.316 162.04 560.292 161.776 560.34 161.632ZM569.268 134.2C571.572 132.952 573.612 131.416 575.388 129.592C577.164 127.72 578.532 125.848 579.492 123.976C580.5 122.056 581.004 120.4 581.004 119.008C581.004 117.76 580.596 116.896 579.78 116.416C579.444 116.224 579.06 116.128 578.628 116.128C577.14 116.128 575.628 117.424 574.092 120.016C572.556 122.56 571.164 126.424 569.916 131.608L569.268 134.2ZM601.495 131.104C601.495 131.632 601.279 132.088 600.847 132.472C600.463 132.856 600.007 133.048 599.479 133.048C598.951 133.048 598.495 132.856 598.111 132.472C597.727 132.088 597.535 131.632 597.535 131.104C597.535 130.576 597.727 130.12 598.111 129.736C598.495 129.304 598.951 129.088 599.479 129.088C600.007 129.088 600.463 129.304 600.847 129.736C601.279 130.12 601.495 130.576 601.495 131.104ZM596.743 137.512C596.839 137.224 597.007 136.984 597.247 136.792C597.487 136.552 597.775 136.432 598.111 136.432C598.591 136.432 598.951 136.624 599.191 137.008C599.479 137.392 599.575 137.8 599.479 138.232L598.975 140.248C598.207 143.272 597.607 145.864 597.175 148.024C596.743 150.184 596.527 152.176 596.527 154C596.527 158.272 597.967 160.408 600.847 160.408C602.383 160.408 603.823 159.568 605.167 157.888C606.511 156.208 607.495 154.168 608.119 151.768C608.167 151.432 608.311 151.168 608.551 150.976C608.839 150.784 609.151 150.688 609.487 150.688C609.967 150.688 610.327 150.88 610.567 151.264C610.855 151.648 610.951 152.056 610.855 152.488C610.087 155.368 608.767 157.912 606.895 160.12C605.071 162.28 603.031 163.36 600.775 163.36C600.439 163.36 599.983 163.312 599.407 163.216C595.615 162.448 593.719 159.376 593.719 154C593.719 151.888 593.935 149.704 594.367 147.448C594.847 145.144 595.471 142.528 596.239 139.6L596.743 137.512ZM639.612 149.968C640.284 150.208 640.62 150.664 640.62 151.336C640.62 151.816 640.404 152.2 639.972 152.488C639.588 152.776 639.18 152.848 638.748 152.704C636.396 151.936 633.636 151.504 630.468 151.408V152.56C630.468 154.432 630.084 156.208 629.316 157.888C628.596 159.52 627.492 160.936 626.004 162.136C624.42 163.384 622.764 164.008 621.036 164.008C619.26 164.008 617.724 163.408 616.428 162.208C615.132 160.96 614.484 159.472 614.484 157.744C614.484 156.64 614.82 155.464 615.492 154.216C616.404 152.536 617.892 151.24 619.956 150.328C622.068 149.416 624.492 148.864 627.228 148.672C626.364 146.128 624.732 144.016 622.332 142.336C619.98 140.656 617.148 139.816 613.836 139.816C613.02 144.664 612.012 148.912 610.812 152.56C610.572 153.232 610.116 153.568 609.444 153.568C608.964 153.568 608.58 153.376 608.292 152.992C608.004 152.608 607.932 152.176 608.076 151.696C609.372 147.52 610.428 142.984 611.244 138.088C611.292 137.752 611.412 137.488 611.604 137.296C611.844 137.056 612.132 136.936 612.468 136.936C615.444 136.744 618.132 137.176 620.532 138.232C622.932 139.24 624.924 140.656 626.508 142.48C628.14 144.304 629.268 146.344 629.892 148.6C633.636 148.6 636.876 149.056 639.612 149.968ZM617.94 155.656C617.508 156.424 617.292 157.192 617.292 157.96C617.292 158.92 617.604 159.712 618.228 160.336C618.9 160.96 619.716 161.272 620.676 161.272C621.924 161.272 623.124 160.792 624.276 159.832C625.572 158.776 626.508 157.528 627.084 156.088C627.66 154.6 627.9 153.064 627.804 151.48C625.5 151.576 623.46 151.984 621.684 152.704C619.956 153.376 618.708 154.36 617.94 155.656ZM635.856 161.632C637.44 153.376 639.72 143.128 642.696 130.888C644.04 125.272 645.744 120.928 647.808 117.856C649.872 114.784 652.032 113.248 654.288 113.248C655.056 113.248 655.872 113.488 656.736 113.968C658.368 114.832 659.184 116.416 659.184 118.72C659.184 120.736 658.512 122.992 657.168 125.488C655.824 127.984 653.976 130.36 651.624 132.616C649.32 134.872 646.776 136.624 643.992 137.872L642.264 145.36C643.752 142.528 645.336 140.344 647.016 138.808C648.744 137.224 650.664 136.432 652.776 136.432C655.32 136.432 657.264 137.176 658.608 138.664C660 140.104 660.696 142.312 660.696 145.288C660.696 147.688 660.24 150.544 659.328 153.856C658.992 155.2 658.824 156.352 658.824 157.312C658.824 158.464 659.064 159.304 659.544 159.832C660.024 160.312 660.648 160.552 661.416 160.552C662.952 160.552 664.416 159.76 665.808 158.176C667.248 156.544 668.328 154.408 669.048 151.768C669.096 151.432 669.24 151.168 669.48 150.976C669.768 150.784 670.08 150.688 670.416 150.688C670.896 150.688 671.256 150.88 671.496 151.264C671.784 151.648 671.88 152.056 671.784 152.488C671.016 155.368 669.792 157.816 668.112 159.832C666.432 161.848 664.56 163.024 662.496 163.36L661.704 163.432C660.216 163.432 658.896 162.928 657.744 161.92C656.592 160.864 656.016 159.232 656.016 157.024C656.016 156.064 656.208 154.768 656.592 153.136C657.504 149.68 657.96 146.944 657.96 144.928C657.96 142.912 657.528 141.472 656.664 140.608C655.8 139.744 654.528 139.312 652.848 139.312C650.88 139.312 649.08 140.344 647.448 142.408C645.864 144.472 644.448 146.992 643.2 149.968C642 152.896 640.512 156.976 638.736 162.208C638.64 162.544 638.448 162.808 638.16 163C637.92 163.24 637.632 163.36 637.296 163.36C636.672 163.36 636.216 163.048 635.928 162.424C635.832 162.04 635.808 161.776 635.856 161.632ZM644.784 134.2C647.088 132.952 649.128 131.416 650.904 129.592C652.68 127.72 654.048 125.848 655.008 123.976C656.016 122.056 656.52 120.4 656.52 119.008C656.52 117.76 656.112 116.896 655.296 116.416C654.96 116.224 654.576 116.128 654.144 116.128C652.656 116.128 651.144 117.424 649.608 120.016C648.072 122.56 646.68 126.424 645.432 131.608L644.784 134.2ZM669.522 147.376C670.098 144.976 671.13 142.888 672.618 141.112C674.154 139.288 675.882 137.896 677.802 136.936C679.77 135.976 681.69 135.496 683.562 135.496C684.858 135.496 686.058 135.736 687.162 136.216C688.266 136.696 689.178 137.392 689.898 138.304C690.954 139.552 691.482 140.944 691.482 142.48C691.482 144.352 690.666 146.152 689.034 147.88C687.402 149.56 685.098 150.952 682.122 152.056C679.146 153.16 675.762 153.736 671.97 153.784C672.306 155.944 673.218 157.72 674.706 159.112C676.242 160.456 678.378 161.128 681.114 161.128C684.33 161.128 687.282 160.288 689.97 158.608C692.706 156.88 694.89 154.336 696.522 150.976C696.762 150.448 697.194 150.184 697.818 150.184C698.202 150.184 698.538 150.328 698.826 150.616C699.114 150.904 699.258 151.24 699.258 151.624C699.258 151.768 699.21 151.984 699.114 152.272C697.242 156.064 694.698 158.968 691.482 160.984C688.266 163 684.81 164.008 681.114 164.008C678.378 164.008 676.098 163.408 674.274 162.208C672.45 161.008 671.106 159.472 670.242 157.6C669.426 155.68 669.018 153.64 669.018 151.48C669.018 149.944 669.186 148.576 669.522 147.376ZM671.826 150.904C675.282 150.904 678.282 150.496 680.826 149.68C683.37 148.864 685.314 147.832 686.658 146.584C688.002 145.288 688.674 143.992 688.674 142.696C688.674 141.784 688.362 140.944 687.738 140.176C686.682 138.88 685.218 138.232 683.346 138.232C681.906 138.232 680.418 138.64 678.882 139.456C677.394 140.224 676.05 141.352 674.85 142.84C673.65 144.328 672.786 146.08 672.258 148.096C672.066 149.008 671.922 149.944 671.826 150.904ZM722 151.84C722.048 151.504 722.192 151.24 722.432 151.048C722.72 150.856 723.032 150.76 723.368 150.76C723.848 150.76 724.208 150.952 724.448 151.336C724.736 151.72 724.832 152.128 724.736 152.56C723.968 155.488 722.576 157.912 720.56 159.832C718.544 161.752 716.288 162.904 713.792 163.288C713.024 163.384 712.4 163.432 711.92 163.432C709.472 163.432 706.976 162.856 704.432 161.704C701.936 160.552 699.944 158.752 698.456 156.304L697.304 162.208C697.208 162.544 697.016 162.808 696.728 163C696.488 163.24 696.2 163.36 695.864 163.36C695.432 163.36 695.072 163.192 694.784 162.856C694.448 162.472 694.328 162.064 694.424 161.632C696.008 153.376 698.288 143.128 701.264 130.888C702.608 125.272 704.312 120.928 706.376 117.856C708.44 114.784 710.6 113.248 712.856 113.248C713.624 113.248 714.44 113.488 715.304 113.968C716.936 114.832 717.752 116.416 717.752 118.72C717.752 120.736 717.08 122.992 715.736 125.488C714.392 127.984 712.544 130.36 710.192 132.616C707.888 134.872 705.344 136.624 702.56 137.872L701.264 143.56C702.848 141.592 704.504 140.032 706.232 138.88C707.96 137.68 709.568 137.08 711.056 137.08C712.256 137.08 713.264 137.464 714.08 138.232C714.992 139.096 715.448 140.176 715.448 141.472C715.448 143.056 714.8 144.784 713.504 146.656C712.208 148.528 710.456 150.256 708.248 151.84C706.04 153.376 703.664 154.48 701.12 155.152C702.272 157.024 703.808 158.392 705.728 159.256C707.696 160.12 709.664 160.552 711.632 160.552C712.112 160.552 712.688 160.504 713.36 160.408C715.376 160.12 717.152 159.232 718.688 157.744C720.224 156.208 721.328 154.24 722 151.84ZM699.32 152.632C701.72 152.2 703.928 151.36 705.944 150.112C708.008 148.816 709.64 147.4 710.84 145.864C712.04 144.328 712.64 143.008 712.64 141.904C712.64 141.232 712.448 140.728 712.064 140.392C711.728 140.056 711.272 139.888 710.696 139.888C709.64 139.888 708.392 140.464 706.952 141.616C705.512 142.768 704.096 144.328 702.704 146.296C701.36 148.216 700.232 150.328 699.32 152.632ZM703.352 134.2C705.656 132.952 707.696 131.416 709.472 129.592C711.248 127.72 712.616 125.848 713.576 123.976C714.584 122.056 715.088 120.4 715.088 119.008C715.088 117.76 714.68 116.896 713.864 116.416C713.528 116.224 713.144 116.128 712.712 116.128C711.224 116.128 709.712 117.424 708.176 120.016C706.64 122.56 705.248 126.424 704 131.608L703.352 134.2ZM763.376 122.464C763.376 122.848 763.232 123.208 762.944 123.544C762.656 123.832 762.32 123.976 761.936 123.976C761.6 123.976 761.288 123.856 761 123.616C760.712 123.376 760.544 123.088 760.496 122.752C760.16 120.256 759.128 118.336 757.4 116.992C755.672 115.648 753.632 114.976 751.28 114.976C749.36 114.976 747.488 115.432 745.664 116.344C743.84 117.208 742.28 118.48 740.984 120.16C739.16 122.512 738.248 125.032 738.248 127.72C738.248 129.688 738.728 131.584 739.688 133.408C740.648 135.232 741.968 136.84 743.648 138.232C743.984 138.472 744.152 138.832 744.152 139.312C744.152 139.696 744.008 140.032 743.72 140.32C743.432 140.608 743.096 140.752 742.712 140.752C742.328 140.752 742.016 140.632 741.776 140.392C739.856 138.712 738.296 136.768 737.096 134.56C735.944 132.304 735.368 129.976 735.368 127.576C735.368 124.36 736.472 121.312 738.68 118.432C740.216 116.464 742.088 114.952 744.296 113.896C746.552 112.84 748.856 112.312 751.208 112.312C754.28 112.312 756.968 113.176 759.272 114.904C761.576 116.632 762.944 119.104 763.376 122.32V122.464ZM738.896 147.016C740.96 145.72 743.696 144.784 747.104 144.208C750.512 143.584 754.28 143.272 758.408 143.272C760.952 143.272 763.664 143.392 766.544 143.632C766.88 143.68 767.168 143.848 767.408 144.136C767.696 144.376 767.84 144.688 767.84 145.072C767.84 145.504 767.672 145.864 767.336 146.152C767.048 146.44 766.688 146.56 766.256 146.512C763.376 146.272 760.688 146.152 758.192 146.152C757.088 146.152 755.48 146.2 753.368 146.296C755.624 148.792 756.752 151.6 756.752 154.72C756.752 155.488 756.68 156.352 756.536 157.312C756.008 160.048 754.472 162.328 751.928 164.152C749.432 165.976 746.672 166.888 743.648 166.888C742.352 166.888 741.176 166.72 740.12 166.384C737.768 165.712 735.992 164.536 734.792 162.856C733.544 161.176 732.92 159.304 732.92 157.24C732.92 155.32 733.448 153.448 734.504 151.624C735.512 149.8 736.976 148.264 738.896 147.016ZM740.48 149.464C738.896 150.472 737.672 151.672 736.808 153.064C735.992 154.408 735.584 155.776 735.584 157.168C735.584 158.656 736.04 159.976 736.952 161.128C737.864 162.28 739.208 163.12 740.984 163.648C741.992 163.936 742.976 164.08 743.936 164.08C746.288 164.08 748.4 163.384 750.272 161.992C752.144 160.6 753.272 158.848 753.656 156.736C753.8 155.92 753.872 155.176 753.872 154.504C753.872 152.92 753.512 151.528 752.792 150.328C752.12 149.128 751.088 147.904 749.696 146.656C745.616 147.184 742.544 148.12 740.48 149.464ZM771.854 160.912C772.718 161.104 773.39 161.2 773.87 161.2C776.03 161.2 778.022 160.36 779.846 158.68C781.718 156.952 783.11 154.432 784.022 151.12C784.406 149.824 784.598 148.432 784.598 146.944C784.598 145.024 784.238 143.368 783.518 141.976C782.798 140.536 781.79 139.576 780.494 139.096C779.486 138.76 778.574 138.592 777.758 138.592C775.646 138.592 773.678 139.48 771.854 141.256C770.03 143.032 768.662 145.792 767.75 149.536C767.366 151.168 767.174 152.536 767.174 153.64C767.174 155.56 767.582 157.168 768.398 158.464C769.262 159.712 770.414 160.528 771.854 160.912ZM765.014 148.816C766.118 144.448 767.87 141.184 770.27 139.024C772.67 136.864 775.262 135.784 778.046 135.784C779.198 135.784 780.35 135.976 781.502 136.36C783.374 137.032 784.814 138.376 785.822 140.392C786.878 142.408 787.406 144.664 787.406 147.16C787.406 148.792 787.19 150.4 786.758 151.984C785.654 155.824 783.902 158.8 781.502 160.912C779.102 162.976 776.51 164.008 773.726 164.008C772.958 164.008 772.094 163.888 771.134 163.648C769.07 163.168 767.438 162.016 766.238 160.192C765.038 158.32 764.438 156.064 764.438 153.424C764.438 151.744 764.63 150.208 765.014 148.816ZM793.901 138.088C793.949 137.752 794.093 137.488 794.333 137.296C794.621 137.104 794.933 137.008 795.269 137.008C795.749 137.008 796.109 137.2 796.349 137.584C796.637 137.968 796.733 138.376 796.637 138.808L795.197 144.784C798.173 139.6 801.437 137.008 804.989 137.008C807.389 137.008 809.165 137.56 810.317 138.664C811.469 139.768 812.045 141.544 812.045 143.992C812.045 146.536 811.397 150.016 810.101 154.432C809.669 155.872 809.453 157.048 809.453 157.96C809.453 159.064 809.717 159.88 810.245 160.408C810.773 160.888 811.445 161.128 812.261 161.128C813.173 161.128 814.253 160.72 815.501 159.904C816.749 159.04 817.877 157.888 818.885 156.448C819.941 155.008 820.709 153.448 821.189 151.768C821.237 151.432 821.381 151.168 821.621 150.976C821.909 150.784 822.221 150.688 822.557 150.688C823.037 150.688 823.397 150.88 823.637 151.264C823.925 151.648 824.021 152.056 823.925 152.488C823.397 154.408 822.485 156.256 821.189 158.032C819.941 159.808 818.525 161.248 816.941 162.352C815.405 163.456 813.941 164.008 812.549 164.008C811.061 164.008 809.693 163.504 808.445 162.496C807.245 161.488 806.645 159.928 806.645 157.816C806.645 156.568 806.885 155.2 807.365 153.712C808.613 149.92 809.237 146.92 809.237 144.712C809.237 143.032 808.877 141.808 808.157 141.04C807.437 140.272 806.381 139.888 804.989 139.888C803.069 139.888 801.317 140.92 799.733 142.984C798.149 145.048 796.733 147.568 795.485 150.544C794.285 153.472 792.845 157.432 791.165 162.424C790.973 163.048 790.517 163.36 789.797 163.36C789.317 163.36 788.909 163.24 788.573 163C788.189 162.712 788.021 162.4 788.069 162.064C788.645 159.376 789.533 155.608 790.733 150.76C791.933 145.912 792.797 142.432 793.325 140.32L793.901 138.088ZM829.167 131.104C829.167 131.632 828.951 132.088 828.519 132.472C828.135 132.856 827.679 133.048 827.151 133.048C826.623 133.048 826.167 132.856 825.783 132.472C825.399 132.088 825.207 131.632 825.207 131.104C825.207 130.576 825.399 130.12 825.783 129.736C826.167 129.304 826.623 129.088 827.151 129.088C827.679 129.088 828.135 129.304 828.519 129.736C828.951 130.12 829.167 130.576 829.167 131.104ZM824.415 137.512C824.511 137.224 824.679 136.984 824.919 136.792C825.159 136.552 825.447 136.432 825.783 136.432C826.263 136.432 826.623 136.624 826.863 137.008C827.151 137.392 827.247 137.8 827.151 138.232L826.647 140.248C825.879 143.272 825.279 145.864 824.847 148.024C824.415 150.184 824.199 152.176 824.199 154C824.199 158.272 825.639 160.408 828.519 160.408C830.055 160.408 831.495 159.568 832.839 157.888C834.183 156.208 835.167 154.168 835.791 151.768C835.839 151.432 835.983 151.168 836.223 150.976C836.511 150.784 836.823 150.688 837.159 150.688C837.639 150.688 837.999 150.88 838.239 151.264C838.527 151.648 838.623 152.056 838.527 152.488C837.759 155.368 836.439 157.912 834.567 160.12C832.743 162.28 830.703 163.36 828.447 163.36C828.111 163.36 827.655 163.312 827.079 163.216C823.287 162.448 821.391 159.376 821.391 154C821.391 151.888 821.607 149.704 822.039 147.448C822.519 145.144 823.143 142.528 823.911 139.6L824.415 137.512Z" fill="white"/>
</g>
<defs>
<linearGradient id="paint0_linear" x1="1214" y1="2.99985" x2="-40.9999" y2="423" gradientUnits="userSpaceOnUse">
<stop stop-color="#FF0099"/>
<stop offset="1" stop-color="#493240"/>
</linearGradient>
<clipPath id="clip0">
<rect width="1140" height="342" fill="white"/>
</clipPath>
</defs>
</svg>
